# xmcd
# Copyright (C) 1995-1998 Ti Kan
#
# Track frame offsets:
#       150
#       18004
#       25096
#       30386
#       41340
#       44235
#       47561
#       52893
#       60415
#       67712
#       100604
#
# Disc length: 3253 seconds
#
# Revision: 0
# Processed by: cddbd v1.5.2PL0 Copyright (c) Steve Scherf et al.
# Submitted via: CD-Import v1.0
#
DISCID=760cb30b
DTITLE=La Casa Fantom - Ingen Ny Dag
DYEAR=1900
DGENRE=
TTITLE0=Stillheten Skriker
TTITLE1=Upro/Vd Uvitende
TTITLE2=Sover Alene
TTITLE3=Hodepine
TTITLE4=Meningamed Livet
TTITLE5=Ingen Ny Dag
TTITLE6=Tomme Hjerteslag
TTITLE7=Dagdro/M
TTITLE8=Kaste Den Fo/Rste Steinen
TTITLE9=Ro/Mmer Til Skogen
TTITLE10=Data Track
EXTD=
EXTT0=
EXTT1=
EXTT2=
EXTT3=
EXTT4=
EXTT5=
EXTT6=
EXTT7=
EXTT8=
EXTT9=
EXTT10=
PLAYORDER=
